<svg width="34" height="34" viewBox="0 0 30 30" xmlns="http://www.w3.org/2000/svg">
    <path d="M30,15A15,15,0,1,1,15,0,15,15,0,0,1,30,15" style="fill:#98d5f4;fill-rule:evenodd"></path>
    <path d="M15.52,8.36s-10,1.85-13.83,13.59A16,16,0,0,0,6.42,27.3a13.14,13.14,0,0,1,10.69-6.55C15.71,16,15.52,8.36,15.52,8.36Z"
          style="fill:#fff;opacity:0.27"></path>
    <path d="M12.52,12S6,14.3,2.53,23.36a17.83,17.83,0,0,0,1.88,2.23,16.58,16.58,0,0,1,11.7-5.84A27.93,27.93,0,0,0,12.52,12Z"
          style="fill:#fff;opacity:0.27"></path>
    <path d="M17.81,9.85l-2.05-1.1a0.45,0.45,0,0,1-.24-0.39,6.25,6.25,0,0,0-3.31,1.85,0.92,0.92,0,0,1,.18.3l0.53,1.56a0.93,0.93,0,0,1-.33,1l-1.32,1a0.92,0.92,0,0,1-.75.15c0,0.08,0,.17,0,0.25a6.25,6.25,0,0,0,2.38,4.91l0.25-.79a0.67,0.67,0,0,1,.63-0.47l2,0a0.67,0.67,0,0,1,.65.46l0.65,1.91a0.66,0.66,0,0,1,0,.25A6.23,6.23,0,0,0,21,19.1l-0.28-1.73A0.52,0.52,0,0,1,21,16.81l1.86-1A6.24,6.24,0,0,0,19.37,8.8l-1,1A0.46,0.46,0,0,1,17.81,9.85Zm1,2,1.62,1.18a0.69,0.69,0,0,1,.25.77l-0.62,1.9a0.69,0.69,0,0,1-.65.47h-2a0.69,0.69,0,0,1-.65-0.47l-0.62-1.9a0.69,0.69,0,0,1,.25-0.77L18,11.88A0.69,0.69,0,0,1,18.85,11.88Z"
          style="fill:#fff"></path>
    <path d="M16.42,13.06a0.69,0.69,0,0,0-.25.77l0.62,1.9a0.69,0.69,0,0,0,.65.47h2a0.69,0.69,0,0,0,.65-0.47l0.62-1.9a0.69,0.69,0,0,0-.25-0.77l-1.62-1.18a0.69,0.69,0,0,0-.81,0Z"
          style="fill:#252525"></path>
    <path d="M20.75,17.36L21,19.1a6.25,6.25,0,0,0,1.86-3.23l-1.86,1A0.52,0.52,0,0,0,20.75,17.36Z"
          style="fill:#252525"></path>
    <path d="M17.08,20.5l-0.65-1.91a0.67,0.67,0,0,0-.65-0.46l-2,0a0.67,0.67,0,0,0-.63.47l-0.25.79a6.24,6.24,0,0,0,3.89,1.36l0.33,0A0.66,0.66,0,0,0,17.08,20.5Z"
          style="fill:#252525"></path>
    <path d="M15.52,8.36a0.45,0.45,0,0,0,.24.39l2.05,1.1a0.46,0.46,0,0,0,.53-0.07l1-1A6.24,6.24,0,0,0,15.52,8.36Z"
          style="fill:#252525"></path>
    <path d="M11.28,14.1l1.32-1a0.93,0.93,0,0,0,.33-1L12.4,10.51a0.92,0.92,0,0,0-.18-0.3,6.24,6.24,0,0,0-1.69,4A0.92,0.92,0,0,0,11.28,14.1Z"
          style="fill:#252525"></path>
    <g style="opacity:0.09">
        <path d="M20.7,9.67a6.26,6.26,0,0,1-8.81,8.81A6.26,6.26,0,1,0,20.7,9.67Z" style="fill:#737373"></path>
    </g>
    <g style="opacity:0.09">
        <path d="M12.85,19.38a6.26,6.26,0,0,1,8.81-8.81A6.26,6.26,0,1,0,12.85,19.38Z" style="fill:#fcfcfc"></path>
    </g>
</svg>