<svg width="40px" height="40px" viewBox="0 0 40 40" version="1.1" xmlns="http://www.w3.org/2000/svg">
    <g stroke="none" stroke-width="1" fill="none" fill-rule="evenodd">
        <g>
            <g fill="#98D5F4">
                <g>
                    <path d="M40,20 C40,31.045738 31.045738,40 20,40 C8.95426201,40 0,31.045738 0,20 C0,8.95426201 8.95426201,0 20,0 C31.045738,0 40,8.95426201 40,20"
                          id="Fill-1"></path>
                </g>
            </g>
            <g transform="translate(8.000000, 8.000000)">
                <path d="M7.53159862,0.591436351 L14.4270233,4.31474235 L17.6206781,6.03903219 L20.1146029,7.38570214 C23.5960485,9.26564251 24.9992233,13.7987549 23.242371,17.5241163 C22.5322789,19.0302026 21.4153306,20.1705937 20.1067825,20.8712303 C18.1786635,21.9034611 11.9062945,24.8713339 9.83232505,23.7514451 C6.35087954,21.871714 8.88333891,14.431399 10.6399957,10.7060375 C10.8192692,10.3259439 11.0228096,9.97269094 11.2485804,9.64440129 L0,4.72682227 L0,2.73481863 L6.60838524,0 C6.60838524,0 6.96622227,0.225052243 7.53159862,0.591436351 Z"
                      fill="#D8D8D8"></path>
                <g transform="translate(0.000000, 3.130435)">
                    <polygon fill="#252525"
                             points="14.8723081 2.60869565 18.1499179 4.19911998 14.3845324 5.53468153 10.7329193 3.76273043"></polygon>
                    <path d="M0,3.91666672 L0,0 L8.3791405,4.06571611 L11.8017421,5.72625289 L14.4744513,7.02313171 C18.2054747,8.83356407 19.7092403,13.1990713 17.8264428,16.7866931 C17.0654456,18.237094 15.8684255,19.3353209 14.4660703,20.0100525 C12.3997283,21.004118 9.88730617,21.0780585 7.66465801,19.9995759 C3.93363466,18.189345 2.43804053,13.8083243 4.32062855,10.2207026 C5.01792993,8.89219258 6.05780576,7.90417118 7.33591226,7.17020668 L0,3.91666672 Z"
                          id="Fill-8" fill="#EBEBEB"></path>
                </g>
            </g>
        </g>
    </g>
</svg>